<?xml version="1.0" standalone="no"?>
<!DOCTYPE svg PUBLIC "-//W3C//DTD SVG 20010904//EN"
 "http://www.w3.org/TR/2001/REC-SVG-20010904/DTD/svg10.dtd">
<svg version="1.0" xmlns="http://www.w3.org/2000/svg"
 width="625.000000pt" height="264.000000pt" viewBox="0 0 625.000000 264.000000"
 preserveAspectRatio="xMidYMid meet">

<g transform="translate(0.000000,264.000000) scale(0.100000,-0.100000)"
fill="#000000" stroke="none">
<path d="M1625 1916 c-123 -32 -236 -77 -390 -156 -225 -114 -345 -201 -345
-249 0 -29 36 -67 79 -85 70 -27 168 -37 454 -45 262 -7 280 -9 299 -28 43
-44 16 -150 -78 -300 -86 -137 -159 -227 -260 -321 -51 -47 -95 -91 -98 -98
-8 -22 5 -52 27 -58 43 -11 102 27 257 165 90 80 146 119 171 119 24 0 25 -44
4 -114 -38 -124 -2 -165 98 -115 54 28 125 75 160 107 l27 26 16 -22 c23 -33
78 -29 137 8 26 16 50 30 52 30 3 0 5 -13 5 -29 0 -36 40 -71 80 -71 36 0 176
70 240 121 l50 39 0 -30 c0 -38 23 -84 52 -104 29 -20 131 -21 187 -1 46 16
111 58 185 119 l49 41 -6 -46 c-6 -48 6 -114 24 -124 25 -16 39 18 39 96 0 61
3 79 14 79 23 0 166 75 236 124 35 25 66 44 67 42 2 -1 -8 -35 -22 -75 -99
-291 -107 -533 -20 -573 16 -7 29 -7 44 1 26 14 27 27 2 34 -46 12 -50 144
-10 316 19 84 123 407 137 427 4 6 49 19 100 29 117 22 121 39 7 30 -47 -4
-85 -4 -85 -1 0 4 18 39 39 79 42 78 110 251 118 304 4 26 2 33 -10 33 -31 0
-88 -98 -177 -305 -24 -55 -49 -106 -55 -113 -11 -12 -241 -39 -251 -29 -3 3
11 50 30 104 34 100 35 132 1 120 -13 -6 -84 -142 -108 -209 -3 -9 -21 -19
-39 -23 -91 -18 -123 -52 -38 -40 28 4 50 5 50 2 0 -11 -51 -138 -62 -157 -7
-11 -21 -20 -30 -20 -18 0 -42 -33 -31 -44 18 -18 -144 -145 -217 -171 -106
-38 -160 -11 -160 79 0 103 -16 109 -98 35 -63 -56 -231 -145 -256 -136 -21 8
-20 36 4 93 37 86 13 95 -75 29 -63 -48 -126 -85 -146 -85 -8 0 -9 16 -4 55
10 85 -10 83 -98 -6 -70 -72 -202 -168 -214 -156 -3 4 2 35 11 71 22 88 21
131 -4 156 -11 11 -28 20 -37 20 -33 -1 -97 -37 -172 -96 -41 -32 -71 -53 -68
-47 4 7 38 52 75 101 144 193 207 330 200 434 -3 43 -10 64 -28 83 -25 27 -26
26 50 45 294 72 421 171 391 303 -15 65 -71 136 -131 167 -92 47 -297 54 -445
16z m364 -38 c59 -15 134 -88 151 -145 11 -36 10 -46 -6 -79 -23 -46 -59 -72
-161 -114 -141 -59 -252 -82 -420 -87 -172 -6 -256 7 -359 56 -60 28 -108 74
-101 95 9 28 311 182 462 236 164 58 307 71 434 38z m-929 -307 c0 -21 56 -74
102 -97 28 -14 48 -28 45 -30 -3 -3 -46 2 -97 10 -90 16 -150 38 -150 55 0 12
72 70 88 71 6 0 12 -4 12 -9z m2440 -415 c0 -19 -78 -89 -159 -141 -75 -48
-160 -89 -169 -80 -7 7 21 96 51 160 l23 50 120 11 c65 6 122 12 127 13 4 0 7
-5 7 -13z"/>
<path d="M4261 1593 c-45 -90 -198 -298 -284 -387 -67 -70 -76 -77 -70 -51 4
17 8 48 8 70 0 35 -3 40 -25 43 -16 2 -36 -7 -57 -25 -55 -48 -265 -296 -279
-331 -16 -36 -7 -65 22 -76 19 -7 95 25 142 60 18 14 35 24 38 22 2 -3 -3 -24
-11 -48 -20 -57 -19 -86 5 -110 27 -27 80 -26 115 2 25 19 28 20 37 4 20 -36
52 -56 91 -56 55 0 102 25 149 80 l41 48 31 -19 c42 -24 201 -34 336 -20 203
21 550 83 550 97 0 19 -32 18 -320 -11 -135 -14 -264 -25 -288 -25 l-43 0 30
37 c82 100 -12 232 -138 194 -63 -18 -125 -76 -191 -177 -46 -70 -73 -101
-106 -120 -24 -14 -51 -23 -59 -20 -23 8 -18 66 10 143 14 37 23 73 21 80 -11
27 -35 11 -74 -50 -46 -72 -117 -147 -138 -147 -21 0 -17 31 16 121 27 74 38
90 123 178 104 108 190 219 265 343 57 94 102 182 102 198 0 26 -22 5 -49 -47z
m-401 -444 c-16 -45 -35 -88 -42 -97 -15 -18 -160 -127 -192 -144 -20 -11 -20
-11 -2 18 11 16 48 67 84 114 167 216 200 240 152 109z m570 -129 c23 -23 24
-30 8 -64 -15 -35 -100 -76 -155 -76 -39 0 -43 2 -43 25 0 17 15 41 45 71 67
66 110 79 145 44z"/>
</g>
</svg>
