<?xml version="1.0" encoding="UTF-8"?>
<svg id="Layer_1" data-name="Layer 1" xmlns="http://www.w3.org/2000/svg" xmlns:xlink="http://www.w3.org/1999/xlink" viewBox="0 0 598.1849 126.6982">
  <defs>
    <linearGradient id="linear-gradient" x1="219.567" y1="62.4447" x2="103.4068" y2="62.4447" gradientUnits="userSpaceOnUse">
      <stop offset="0" stop-color="#ff595e"/>
      <stop offset="1" stop-color="#89216b"/>
    </linearGradient>
  </defs>
  <a xlink:href="43.8078431372549">
    <polygon id="fullLogo" points="335.5357 66.7594 309.5456 66.7594 309.5456 92.7496 299.2809 92.7496 299.2809 66.7594 273.2907 66.7594 273.2907 56.4947 299.2809 56.4947 299.2809 30.5046 309.5456 30.5046 309.5456 56.4947 335.5357 56.4947 335.5357 66.7594" style="fill: #ff595e;"/>
  </a>
  <a xlink:href="adient">
    <path id="fullLogo-2" data-name="fullLogo" d="m192.1895,30.6118c-9.6079,0-18.8656,4.1183-24.7239,11.8246-6.1883,8.1404-6.1158,12.6365-7.1525,20.146-1.6886,12.2313-9.6725,20.4448-20.617,20.4448-11.35,0-20.5838-9.2329-20.5838-20.582s9.2338-20.5838,20.5838-20.5838c5.3081,0,11.2112,1.9713,15.6139,7.2532,1.3521-3.7315,3.2385-7.1958,5.5909-10.3069-6.6578-5.7076-14.0613-8.1958-21.2048-8.1958-17.5534,0-31.8334,14.2799-31.8334,31.8334s14.2799,31.8316,31.8334,31.8316c9.2966,0,18.4171-4.5188,24.688-11.7815,4.5801-5.3045,6.1997-11.2751,7.0678-18.5192,1.5829-13.2085,8.9701-22.0289,20.7377-22.1147,11.3497-.0828,20.5838,9.2338,20.5838,20.5838s-9.2338,20.582-20.5838,20.582c-5.3135,0-11.1874-2.2106-15.5796-7.2344-1.3515,3.6797-3.2852,7.2039-5.586,10.2935,0,0,8.5278,8.2911,21.1656,8.1905,17.5529-.1398,31.8334-14.2799,31.8334-31.8316s-14.2799-31.8334-31.8334-31.8334Z" style="fill: url(#linear-gradient);"/>
  </a>
  <path id="fullLogo-3" data-name="fullLogo" d="m248.7039,92.8239h-10.2647v-50.8646h-5.646v-9.4946h5.646v-9.2402c0-5.0037,0-11.292,2.6944-15.6534,3.3358-5.3887,9.3668-7.5712,15.5256-7.5712,2.438,0,4.8751.5145,7.313,1.2829v9.6998c-2.3093-.7701-4.3623-.718-6.928-.718-8.3404,0-8.3404,5.9032-8.3404,16.553v5.6471h15.2684v9.4946h-15.2684v50.8646Z" style="fill: #89216b;"/>
  <path id="fullLogo-4" data-name="fullLogo" d="m10.2647,41.1156h.2564c5.0046-6.6716,12.4462-10.2647,20.7866-10.2647,17.7063,0,28.8689,15.2684,28.8689,31.9491,0,17.1935-10.9061,31.6918-28.9975,31.6918-8.2117,0-15.782-3.5914-20.658-10.1352h-.2564v42.3415H0V32.5188h10.2647v8.5968Zm-.5137,20.9144c0,11.8048,6.9289,22.9673,19.7601,22.9673,13.2154,0,20.1443-10.6497,20.1443-22.8378,0-12.0621-7.5703-21.8139-20.2729-21.8139-11.9326,0-19.6315,10.3941-19.6315,21.6844Z" style="fill: #89216b;"/>
  <path id="fullLogo-5" data-name="fullLogo" d="m84.3032,39.0626h.2564c3.5931-4.7465,6.6725-8.2117,13.3441-8.2117,3.4644,0,6.2874,1.1551,9.2382,2.823l-4.8759,9.3668c-2.0529-1.4106-3.4636-2.6952-6.1588-2.6952-11.2903,0-11.8039,14.5-11.8039,22.3267v30.1517h-10.2647v-60.3051h10.2647v6.5438Z" style="fill: #89216b;"/>
  <path id="fullLogo-6" data-name="fullLogo" d="m412.8961,89.7989c0,9.6224,0,17.9636-6.1588,25.9181-5.646,7.1844-14.3705,10.6497-23.3523,10.6497-16.8085,0-29.2547-10.6497-29.6398-27.7155h10.2647c.1286,11.1642,8.2117,18.2209,19.2465,18.2209,15.9107,0,19.3751-11.677,19.3751-25.2775v-7.1844h-.2573c-4.8759,6.2866-12.8304,10.0074-20.9144,10.0074-17.5777,0-28.7411-14.7556-28.7411-31.5641,0-16.9363,11.2911-32.0769,29.1261-32.0769,8.3404,0,15.6534,3.7208,20.5293,10.2647h.2573v-8.5968h10.2647v57.3544Zm-49.6554-27.8432c0,11.8048,6.928,22.9673,19.7593,22.9673,13.2154,0,20.1443-10.6497,20.1443-22.8395,0-12.0603-7.5703-21.8122-20.2729-21.8122-11.9326,0-19.6306,10.3941-19.6306,21.6844Z" style="fill: #89216b;"/>
  <path id="fullLogo-7" data-name="fullLogo" d="m435.4818,64.7786c.1278,11.1625,8.0831,20.1443,19.7593,20.1443,8.7245,0,14.3705-5.261,18.3478-12.4454l8.7254,5.0037c-5.7738,10.7775-15.5256,16.9363-27.8432,16.9363-17.9636,0-29.5111-13.7282-29.5111-31.0513,0-17.8341,10.3933-32.5897,29.2547-32.5897,19.3742,0,29.6389,16.0384,28.6124,34.002h-47.3453Zm36.5678-8.7245c-1.4115-8.7262-8.7254-15.7829-17.7072-15.7829-8.8532,0-17.0649,7.0566-18.3478,15.7829h36.055Z" style="fill: #89216b;"/>
  <path id="fullLogo-8" data-name="fullLogo" d="m506.5695,92.7496h-10.2647V30.5046h10.2647v62.245Z" style="fill: #89216b;"/>
  <path id="fullLogo-9" data-name="fullLogo" d="m549.8106,46.43c-1.4115-3.208-4.4909-6.1588-8.2117-6.1588-3.5922,0-7.4417,2.823-7.4417,6.6716,0,5.5182,6.9289,7.5712,13.9855,10.5219,7.0566,2.9508,13.9855,7.1861,13.9855,17.3213,0,11.4198-9.2382,19.6315-20.4007,19.6315-10.136,0-18.0914-5.7738-21.2994-15.2684l9.1104-3.8486c2.5657,5.6443,5.5165,9.6224,12.3176,9.6224,5.5165,0,9.751-3.7208,9.751-9.2391,0-13.471-27.2018-8.8523-27.2018-27.8415,0-10.1369,8.2117-17.0658,17.9636-17.0658,6.9289,0,13.3441,4.8759,16.0384,11.1625l-8.5968,4.4909Z" style="fill: #89216b;"/>
  <path id="fullLogo-10" data-name="fullLogo" d="m587.4074,92.7496h-10.2647v-50.8105h-6.2874v-9.4946h6.2874V10.7618h10.2647v21.6827h10.7775v9.4946h-10.7775v50.8105Z" style="fill: #89216b;"/>
  <a xlink:href="77.9611764705882">
    <circle id="fullLogo-11" data-name="fullLogo" cx="501.4372" cy="10.7618" r="7.4212" style="fill: #89216b;"/>
  </a>
</svg>