<?xml version="1.0" encoding="UTF-8"?>
<svg width="114px" height="25px" viewBox="0 0 114 25" version="1.1" xmlns="http://www.w3.org/2000/svg" xmlns:xlink="http://www.w3.org/1999/xlink">
    <title>Artboard</title>
    <defs>
        <linearGradient x1="96.1639218%" y1="49.9998366%" x2="-3.83599216%" y2="49.9998366%" id="linearGradient-1">
            <stop stop-color="#FF595E" offset="0%"></stop>
            <stop stop-color="#89216B" offset="100%"></stop>
        </linearGradient>
    </defs>
    <g id="Artboard" stroke="none" stroke-width="1" fill="none" fill-rule="evenodd">
        <g id="P+g_Horiz_Logo_Refinement_Logo_Full_Color_RGB" transform="translate(0, 0.9999)" fill-rule="nonzero">
            <polygon id="fullLogo" fill="#FF595E" points="63.5593623 12.6460202 58.6361479 12.6460202 58.6361479 17.5692535 56.6917415 17.5692535 56.6917415 12.6460202 51.7685082 12.6460202 51.7685082 10.7016138 56.6917415 10.7016138 56.6917415 5.77839938 58.6361479 5.77839938 58.6361479 10.7016138 63.5593623 10.7016138"></polygon>
            <path d="M36.4057895,5.7987059 C34.5857984,5.7987059 32.8321444,6.57882117 31.722427,8.03859881 C30.5501988,9.58060651 30.5639322,10.4322871 30.3675538,11.8547856 C30.0476881,14.1717183 28.5353257,15.7275731 26.4621471,15.7275731 C24.312156,15.7275731 22.5630293,13.9786169 22.5630293,11.8287963 C22.5630293,9.67897571 24.312156,7.92967856 26.4621471,7.92967856 C27.467642,7.92967856 28.5858457,8.30309507 29.4198339,9.30362704 C29.6759575,8.59678196 30.0332917,7.94055164 30.4788987,7.35122677 C29.2177347,6.27005593 27.8153155,5.7987059 26.4621471,5.7987059 C23.1370675,5.7987059 20.4320567,8.50371671 20.4320567,11.8288152 C20.4320567,15.1539138 23.1370485,17.8585647 26.4621471,17.8585647 C28.2231697,17.8585647 29.9508343,17.0025841 31.1387092,15.6268361 C32.0063016,14.622023 32.3130968,13.491033 32.477538,12.1188083 C32.7773812,9.61676804 34.1767128,7.9459503 36.4058084,7.9296975 C38.5557427,7.91401299 40.3049262,9.67882417 40.3049262,11.8288152 C40.3049262,13.9788063 38.5557995,15.727592 36.4058084,15.727592 C35.3992906,15.727592 34.2866181,15.3088457 33.4546189,14.3572048 C33.198609,15.0542376 32.8323149,15.7218145 32.3964823,16.3070667 C32.3964823,16.3070667 34.0118739,17.877621 36.4058084,17.8585647 C39.7307933,17.8320829 42.4358989,15.1535728 42.4358989,11.8288152 C42.4358989,8.50405767 39.730907,5.7987059 36.4058084,5.7987059 L36.4057895,5.7987059 Z" id="fullLogo-2" fill="url(#linearGradient-1)"></path>
            <path d="M47.111116,17.5833279 L45.1667096,17.5833279 L45.1667096,7.94822342 L44.0972074,7.94822342 L44.0972074,6.14969431 L45.1667096,6.14969431 L45.1667096,4.39935532 C45.1667096,3.45152181 45.1667096,2.26035098 45.6771004,1.43418612 C46.3089894,0.413423395 47.4514208,0 48.6180609,0 C49.0798827,0 49.5415341,0.0974599481 50.0033371,0.243015291 L50.0033371,2.08041472 C49.5658944,1.93453735 49.1770017,1.94440647 48.6909901,1.94440647 C47.1110971,1.94440647 47.1110971,3.06262915 47.1110971,5.07998377 L47.1110971,6.14969431 L50.0033371,6.14969431 L50.0033371,7.94822342 L47.1110971,7.94822342 L47.1110971,17.5833279 L47.111116,17.5833279 Z" id="fullLogo-3" fill="#89216B"></path>
            <path d="M1.94440647,7.78840426 L1.99297543,7.78840426 C2.94097943,6.52462624 4.35061587,5.84399778 5.93050888,5.84399778 C9.28455179,5.84399778 11.3990443,8.73623777 11.3990443,11.8960048 C11.3990443,15.1529098 9.3331397,17.8992724 5.90614863,17.8992724 C4.35063482,17.8992724 2.91661918,17.218966 1.99297543,15.9793967 L1.94440647,15.9793967 L1.94440647,24 L0,24 L0,6.15994229 L1.94440647,6.15994229 L1.94440647,7.78840426 Z M1.84709806,11.7501464 C1.84709806,13.9862887 3.15961553,16.1007623 5.59018518,16.1007623 C8.0935325,16.1007623 9.40604997,14.0834266 9.40604997,11.7746771 C9.40604997,9.48979544 7.97203433,7.64254583 5.56582493,7.64254583 C3.30547395,7.64254583 1.84709806,9.61146409 1.84709806,11.7501464 L1.84709806,11.7501464 Z" id="fullLogo-4" fill="#89216B"></path>
            <path d="M15.9692624,7.3995116 L16.0178314,7.3995116 C16.6984598,6.50039858 17.2817799,5.84399778 18.5455579,5.84399778 C19.2018071,5.84399778 19.7365582,6.06280437 20.295518,6.37874887 L19.3718932,8.15306926 C18.9830195,7.8858642 18.7157955,7.64252689 18.2052531,7.64252689 C16.0665708,7.64252689 15.9692813,10.3892115 15.9692813,11.8717961 L15.9692813,17.5833279 L14.0248749,17.5833279 L14.0248749,6.15994229 L15.9692813,6.15994229 L15.9692813,7.3995116 L15.9692624,7.3995116 Z" id="fullLogo-5" fill="#89216B"></path>
            <path d="M78.2134742,17.0103127 C78.2134742,18.8330505 78.2134742,20.4130951 77.0468341,21.9198884 C75.977332,23.2808043 74.3246802,23.937224 72.623289,23.937224 C69.4393133,23.937224 67.0816728,21.9198884 67.0087247,18.6871731 L68.9531311,18.6871731 C68.9774914,20.8019688 70.508645,22.1386949 72.5989288,22.1386949 C75.6128374,22.1386949 76.2690867,19.9267614 76.2690867,17.3504659 L76.2690867,15.98955 L76.2203473,15.98955 C75.2967224,17.1803988 73.7899291,17.885217 72.2586051,17.885217 C68.9289224,17.885217 66.8142783,15.0901149 66.8142783,11.9061392 C66.8142783,8.69795467 68.9531122,5.82992339 72.3315343,5.82992339 C73.9114273,5.82992339 75.2967035,6.53474161 76.2203283,7.77432986 L76.2690678,7.77432986 L76.2690678,6.1458679 L78.2134742,6.1458679 L78.2134742,17.0103127 Z M68.8074243,11.736072 C68.8074243,13.9722143 70.1197712,16.0866879 72.5503598,16.0866879 C75.0537072,16.0866879 76.3662246,14.0693522 76.3662246,11.7602807 C76.3662246,9.47573999 74.932209,7.62847144 72.5259996,7.62847144 C70.2656486,7.62847144 68.8074243,9.5973897 68.8074243,11.736072 L68.8074243,11.736072 Z" id="fullLogo-6" fill="#89216B"></path>
            <path d="M82.4918049,12.2708042 C82.5160136,14.3852778 84.0229585,16.086669 86.2347405,16.086669 C87.8873922,16.086669 88.9568944,15.090096 89.7103005,13.7291801 L91.3631228,14.6770136 C90.2694119,16.718558 88.4221623,17.8851981 86.0888821,17.8851981 C82.6860997,17.8851981 80.4986969,15.2847128 80.4986969,12.0032581 C80.4986969,8.62500651 82.4674636,5.82990445 86.0403131,5.82990445 C89.7103005,5.82990445 91.654707,8.86800286 91.4602607,12.2707852 L82.4918049,12.2707852 L82.4918049,12.2708042 Z M89.4187163,10.6181524 C89.1513407,8.96517867 87.7658941,7.6284525 86.0645029,7.6284525 C84.387472,7.6284525 82.8319581,8.96515973 82.5889429,10.6181524 L89.4187163,10.6181524 Z" id="fullLogo-7" fill="#89216B"></path>
            <polygon id="fullLogo-8" fill="#89216B" points="95.9577011 17.5692535 94.0132946 17.5692535 94.0132946 5.77839938 95.9577011 5.77839938"></polygon>
            <path d="M104.148712,8.79509259 C103.881337,8.18741229 103.298017,7.6284525 102.593199,7.6284525 C101.912741,7.6284525 101.183543,8.16320358 101.183543,8.89223051 C101.183543,9.93752397 102.496061,10.3264166 103.832768,10.8853575 C105.169475,11.4443173 106.481993,12.2465955 106.481993,14.1664712 C106.481993,16.3296842 104.732032,17.8851981 102.617559,17.8851981 C100.697532,17.8851981 99.1905678,16.7914872 98.5828875,14.9929581 L100.308639,14.2639311 C100.794651,15.3331113 101.35361,16.086669 102.641919,16.086669 C103.686891,16.086669 104.489017,15.3818507 104.489017,14.3365383 C104.489017,11.7847736 99.3362747,12.6596779 99.3362747,9.06261967 C99.3362747,7.14242191 100.891789,5.82990445 102.739057,5.82990445 C104.051575,5.82990445 105.266784,6.75352925 105.777155,7.94437806 L104.148694,8.79507365 L104.148712,8.79509259 Z" id="fullLogo-9" fill="#89216B"></path>
            <polygon id="fullLogo-10" fill="#89216B" points="111.270544 17.5692535 109.326137 17.5692535 109.326137 7.944397 108.135137 7.944397 108.135137 6.1458679 109.326137 6.1458679 109.326137 2.03858934 111.270544 2.03858934 111.270544 6.1458679 113.312088 6.1458679 113.312088 7.944397 111.270544 7.944397 111.270544 17.5692535"></polygon>
            <circle id="fullLogo-11" fill="#89216B" cx="94.9855073" cy="2.03858934" r="1.40577214"></circle>
        </g>
    </g>
</svg>